<svg xmlns="http://www.w3.org/2000/svg" viewBox="0 0 1200 700" preserveAspectRatio="xMidYMax meet">
  <!-- Concept-art sailplane coaming — white fill + black ink -->
  <defs>
    <linearGradient id="ck-fill" x1="0" y1="0" x2="0" y2="1">
      <stop offset="0%" stop-color="#fbfbfc"/>
      <stop offset="100%" stop-color="#f0f0f4"/>
    </linearGradient>
  </defs>

  <path
    d="M 0 700 L 0 480 C 40 450, 120 400, 220 355 C 300 320, 380 295, 480 278 C 530 268, 570 262, 600 258 C 630 262, 670 268, 720 278 C 820 295, 900 320, 980 355 C 1080 400, 1160 450, 1200 480 L 1200 700 Z"
    fill="url(#ck-fill)" stroke="#2a2a2e" stroke-width="2.2" stroke-linejoin="round"/>

  <path
    d="M 55 700 L 70 500 C 130 460, 220 410, 320 375 C 400 348, 480 330, 600 320 C 720 330, 800 348, 880 375 C 980 410, 1070 460, 1130 500 L 1145 700"
    fill="none" stroke="#2a2a2e" stroke-width="1.4" opacity="0.75"/>

  <path d="M 0 700 L 0 520 C 80 500, 160 470, 240 445 L 280 700 Z" fill="#f6f6f8" stroke="#2a2a2e" stroke-width="1.5" stroke-linejoin="round"/>
  <path d="M 30 700 L 90 510" fill="none" stroke="#2a2a2e" stroke-width="1" opacity="0.35"/>
  <path d="M 100 700 L 160 490" fill="none" stroke="#2a2a2e" stroke-width="1" opacity="0.3"/>
  <path d="M 180 700 L 220 470" fill="none" stroke="#2a2a2e" stroke-width="1" opacity="0.28"/>

  <path d="M 1200 700 L 1200 520 C 1120 500, 1040 470, 960 445 L 920 700 Z" fill="#f6f6f8" stroke="#2a2a2e" stroke-width="1.5" stroke-linejoin="round"/>
  <path d="M 1170 700 L 1110 510" fill="none" stroke="#2a2a2e" stroke-width="1" opacity="0.35"/>
  <path d="M 1100 700 L 1040 490" fill="none" stroke="#2a2a2e" stroke-width="1" opacity="0.3"/>
  <path d="M 1020 700 L 980 470" fill="none" stroke="#2a2a2e" stroke-width="1" opacity="0.28"/>

  <path
    d="M 520 700 L 545 520 L 565 400 L 580 330 L 600 270 L 620 330 L 635 400 L 655 520 L 680 700 Z"
    fill="#f4f4f7" stroke="#2a2a2e" stroke-width="1.6" stroke-linejoin="round"/>
  <path d="M 600 700 L 600 272" fill="none" stroke="#2a2a2e" stroke-width="1.1" opacity="0.55"/>
  <path d="M 548 520 L 652 520" fill="none" stroke="#2a2a2e" stroke-width="1" opacity="0.4"/>
  <path d="M 562 400 L 638 400" fill="none" stroke="#2a2a2e" stroke-width="1" opacity="0.4"/>
  <path d="M 575 335 L 625 335" fill="none" stroke="#2a2a2e" stroke-width="1" opacity="0.4"/>

  <path d="M 555 560 L 555 500 L 645 500 L 645 560 Z" fill="#eeeef2" stroke="#2a2a2e" stroke-width="1.4"/>
  <rect x="565" y="512" width="22" height="22" rx="11" fill="#e8eef2" stroke="#2a2a2e" stroke-width="1.1"/>
  <rect x="589" y="508" width="26" height="26" rx="13" fill="#e8eef2" stroke="#2a2a2e" stroke-width="1.1"/>
  <rect x="617" y="512" width="22" height="22" rx="11" fill="#e8eef2" stroke="#2a2a2e" stroke-width="1.1"/>
  <circle cx="576" cy="523" r="2.5" fill="#3cc8dc"/>
  <circle cx="602" cy="521" r="2.5" fill="#3cc8dc"/>
  <circle cx="628" cy="523" r="2.5" fill="#3cc8dc"/>
  <rect x="570" y="540" width="60" height="12" rx="1" fill="#f0f0f4" stroke="#2a2a2e" stroke-width="1"/>

  <path d="M 585 278 C 592 265, 608 265, 615 278 L 600 258 Z" fill="#f8f8fa" stroke="#2a2a2e" stroke-width="1.5" stroke-linejoin="round"/>

  <g id="cockpit-brake" transform="translate(380, 640)">
    <rect x="-10" y="-58" width="20" height="62" rx="3" fill="#ececf0" stroke="#2a2a2e" stroke-width="1.3"/>
    <g id="cockpit-brake-arm" transform="rotate(-18)">
      <line x1="0" y1="0" x2="0" y2="-50" stroke="#2a2a2e" stroke-width="3" stroke-linecap="round"/>
      <circle cx="0" cy="-50" r="7" fill="#e8a090" stroke="#2a2a2e" stroke-width="1.2"/>
    </g>
  </g>

  <g id="cockpit-gear" transform="translate(820, 640)">
    <rect x="-10" y="-58" width="20" height="62" rx="3" fill="#ececf0" stroke="#2a2a2e" stroke-width="1.3"/>
    <g id="cockpit-gear-arm" transform="rotate(-15)">
      <line x1="0" y1="0" x2="0" y2="-50" stroke="#2a2a2e" stroke-width="3" stroke-linecap="round"/>
      <circle cx="0" cy="-50" r="7" fill="#e8a090" stroke="#2a2a2e" stroke-width="1.2"/>
    </g>
  </g>

  <g id="cockpit-stick-base" transform="translate(600, 665)">
    <ellipse cx="0" cy="0" rx="22" ry="8" fill="#ececf0" stroke="#2a2a2e" stroke-width="1.3"/>
    <g id="cockpit-stick">
      <line id="cockpit-stick-shaft" x1="0" y1="0" x2="0" y2="-70" stroke="#2a2a2e" stroke-width="3.2" stroke-linecap="round"/>
      <rect id="cockpit-stick-grip" x="-14" y="-86" width="28" height="18" rx="3" fill="#e8e8ec" stroke="#2a2a2e" stroke-width="1.3"/>
    </g>
  </g>
</svg>
